<?xml version="1.0" standalone="no"?>
<!DOCTYPE svg PUBLIC "-//W3C//DTD SVG 20010904//EN"
 "http://www.w3.org/TR/2001/REC-SVG-20010904/DTD/svg10.dtd">
<svg version="1.0" xmlns="http://www.w3.org/2000/svg"
 width="309.000000pt" height="237.000000pt" viewBox="0 0 309.000000 237.000000"
 preserveAspectRatio="xMidYMid meet">

<g transform="translate(0.000000,237.000000) scale(0.100000,-0.100000)"
fill="#000000" stroke="none">
<path d="M1374 2206 c-18 -8 -37 -22 -42 -32 -7 -12 -23 -19 -46 -20 -45 -1
-82 -34 -97 -84 -6 -20 -20 -40 -33 -46 -11 -5 -26 -25 -32 -44 -6 -19 -17
-36 -23 -38 -20 -7 -50 -77 -52 -123 -1 -28 -10 -52 -23 -67 -19 -21 -21 -38
-23 -150 -2 -103 0 -131 14 -151 9 -14 18 -41 19 -61 2 -24 13 -44 34 -62 16
-15 30 -36 30 -46 0 -54 82 -122 148 -122 17 0 32 -5 32 -10 0 -6 21 -24 47
-40 86 -55 175 -29 187 54 4 25 1 222 -5 361 -1 25 0 107 3 285 1 50 0 140 -2
153 -1 6 1 51 5 99 7 97 0 120 -45 143 -35 18 -55 18 -96 1z m100 -27 c29 -23
37 -63 10 -52 -15 5 -15 3 0 -25 17 -32 20 -62 10 -99 -5 -17 -12 -21 -37 -18
-18 1 -25 1 -16 -2 31 -8 61 -50 61 -86 0 -48 -11 -77 -28 -77 -12 0 -11 -5 5
-26 25 -32 27 -89 6 -141 -13 -31 -13 -34 0 -23 13 11 15 8 15 -16 0 -16 -3
-39 -6 -50 l-6 -22 -35 22 c-20 11 -49 34 -66 49 -19 18 -27 22 -23 11 4 -10
1 -21 -6 -26 -9 -5 -7 -8 8 -8 32 0 98 -53 117 -93 20 -42 22 -106 4 -132 -11
-15 -23 -17 -63 -12 -43 4 -47 4 -29 -9 22 -17 81 -19 91 -3 12 20 24 -7 18
-39 -6 -27 -10 -31 -27 -26 -20 6 -20 6 1 -21 26 -32 28 -74 7 -114 -16 -32
-33 -41 -76 -41 -55 0 -135 58 -112 81 8 8 18 7 34 -5 13 -9 30 -16 39 -16 8
0 2 8 -15 18 -16 11 -37 27 -45 37 -14 17 -15 16 -20 -6 -6 -21 -12 -24 -53
-23 -37 0 -53 6 -77 29 -16 15 -34 41 -39 56 -8 25 -7 29 8 29 9 0 25 6 35 13
15 11 12 12 -23 9 -34 -3 -44 0 -66 23 -14 16 -25 39 -25 51 0 20 5 24 29 24
20 0 32 -6 36 -19 3 -11 12 -22 20 -25 13 -4 12 -1 -1 19 -10 16 -14 35 -10
52 l7 28 -20 -25 c-19 -24 -22 -24 -48 -10 -35 20 -57 63 -48 97 6 24 7 24 24
9 10 -9 23 -16 30 -16 7 0 0 11 -16 24 -24 21 -28 32 -31 92 -4 64 -2 71 23
98 24 26 31 28 80 24 l55 -5 -29 18 c-16 10 -31 28 -34 41 -4 20 -4 20 -6 -4
-1 -23 -6 -28 -27 -28 -25 0 -26 2 -19 38 14 77 59 127 95 104 27 -17 26 2 -2
20 -44 29 1 70 56 50 l31 -11 -23 19 c-29 24 -24 65 13 104 30 32 51 33 83 4
22 -20 24 -21 18 -4 -8 23 17 64 47 76 36 14 63 11 91 -11z"/>
<path d="M1390 2144 c-6 -14 -10 -36 -10 -49 0 -14 -16 -40 -40 -65 -22 -23
-40 -46 -40 -51 0 -5 -15 -9 -34 -9 -19 0 -38 -5 -42 -11 -4 -8 0 -9 15 -4 28
9 46 -5 46 -35 0 -33 -11 -40 -67 -40 -26 0 -50 -4 -53 -10 -4 -6 5 -10 19
-10 14 0 26 -5 26 -10 0 -6 13 -4 31 5 18 10 48 15 77 13 l47 -3 -1 -38 c-1
-30 1 -35 12 -26 34 28 0 89 -49 89 -43 0 -32 67 19 118 28 28 40 33 68 30 19
-2 32 0 30 4 -3 4 -16 8 -29 8 -21 0 -23 3 -18 43 2 23 6 50 8 60 5 26 -4 21
-15 -9z"/>
<path d="M1261 2068 c-1 -32 8 -58 21 -58 5 0 6 5 2 12 -4 6 -11 25 -15 42 -7
30 -7 30 -8 4z"/>
<path d="M1383 1949 c16 -13 37 -35 48 -49 l21 -25 -18 31 c-9 17 -31 39 -48
49 l-31 17 28 -23z"/>
<path d="M1237 1782 c-17 -19 -37 -65 -37 -87 0 -7 11 -27 25 -43 15 -18 25
-42 25 -60 0 -61 56 -102 155 -116 50 -6 25 9 -29 19 -78 14 -132 100 -91 145
14 16 14 17 -10 13 -54 -11 -73 52 -35 115 22 36 21 41 -3 14z"/>
<path d="M1305 1790 c4 -8 15 -23 23 -33 17 -19 17 -19 -18 -34 -20 -8 -15 -9
31 -5 52 4 57 2 77 -23 15 -19 22 -23 22 -12 0 16 -45 57 -63 57 -6 0 -27 15
-46 33 -18 17 -30 25 -26 17z"/>
<path d="M1080 1648 c3 -31 9 -60 12 -64 4 -3 5 9 1 28 -6 39 10 78 32 78 7 0
16 4 19 9 3 5 -11 8 -32 7 l-37 -1 5 -57z"/>
<path d="M1154 1617 c3 -10 6 -38 6 -61 0 -29 8 -55 24 -78 18 -27 21 -39 13
-53 -17 -31 -10 -75 18 -111 30 -40 25 -58 -16 -52 -16 3 -29 3 -29 2 0 -6 47
-54 53 -54 3 0 3 8 1 18 -7 26 28 43 67 32 17 -5 36 -7 41 -4 5 3 21 -8 37
-25 17 -18 39 -31 53 -31 20 1 19 3 -10 15 -36 16 -50 41 -33 58 20 20 12 28
-13 12 -68 -45 -188 56 -152 126 7 13 17 23 22 23 5 -1 23 -4 39 -8 24 -5 20
-1 -18 19 -55 30 -87 75 -87 125 0 19 -5 42 -11 50 -9 12 -10 12 -5 -3z"/>
<path d="M1368 1435 c5 -40 -9 -62 -53 -81 -26 -11 -27 -13 -8 -14 35 0 76 42
76 79 0 17 -4 36 -9 41 -7 7 -9 -3 -6 -25z"/>
<path d="M1613 2210 c-45 -18 -53 -48 -54 -186 -1 -71 -1 -160 -2 -199 0 -38
1 -205 1 -370 2 -318 2 -323 52 -362 34 -27 132 -2 174 46 12 13 31 21 50 21
63 0 146 70 146 122 0 11 14 33 30 48 23 22 30 37 30 66 0 22 7 46 18 57 14
16 17 39 17 142 0 112 -2 126 -22 154 -14 18 -23 45 -23 65 0 43 -15 84 -41
112 -11 12 -28 37 -37 55 -9 19 -27 38 -39 44 -13 5 -23 18 -23 28 0 52 -59
107 -114 107 -14 0 -29 6 -33 14 -11 19 -63 46 -88 45 -11 0 -30 -4 -42 -9z
m69 -61 c-2 -13 -15 -35 -30 -49 l-26 -25 23 27 c13 15 21 34 18 42 -4 9 -1
16 6 16 8 0 7 4 -3 11 -13 9 -13 10 0 6 9 -2 14 -13 12 -28z m-82 -20 c0 -5
-8 -9 -17 -8 -11 0 -13 3 -5 6 6 2 9 10 6 15 -4 7 -2 8 4 4 7 -4 12 -11 12
-17z m123 -50 c-8 -8 -13 -7 -18 2 -5 8 -4 10 3 5 7 -4 12 -2 12 5 0 7 3 9 7
6 4 -4 2 -12 -4 -18z m109 12 c8 11 9 11 6 1 -4 -16 -22 -18 -24 -2 -2 7 -1 6
3 -1 4 -8 8 -7 15 2z m-2 -35 c0 -2 -8 -10 -17 -17 -16 -13 -17 -12 -4 4 13
16 21 21 21 13z m-146 -52 c3 -8 2 -12 -4 -9 -6 3 -10 10 -10 16 0 14 7 11 14
-7z m130 -16 c-5 -8 -1 -9 12 -4 14 5 16 4 7 -5 -13 -13 -37 -3 -28 12 4 5 8
9 11 9 3 0 2 -5 -2 -12z m-55 -1 c-2 -1 -13 -9 -24 -17 -19 -14 -19 -14 -6 3
7 9 18 17 24 17 6 0 8 -1 6 -3z m168 -23 c-9 -9 -28 6 -21 18 4 6 10 6 17 -1
6 -6 8 -13 4 -17z m-271 -5 c24 -26 0 -32 -25 -5 -16 17 -18 23 -6 23 8 0 22
-8 31 -18z m-50 -8 c-6 -9 18 -34 25 -27 2 3 2 -21 -1 -52 l-5 -57 -3 50 c-2
27 -10 57 -18 66 -8 8 -11 19 -7 22 9 10 15 9 9 -2z m129 -18 c-2 -10 -4 -20
-5 -23 -1 -3 -2 -9 -1 -13 1 -5 -3 -6 -8 -3 -10 7 -9 25 2 44 11 17 16 15 12
-5z m-130 -43 c-5 -8 -11 -8 -17 -2 -6 6 -7 16 -3 22 5 8 11 8 17 2 6 -6 7
-16 3 -22z m339 -29 c-3 -3 -15 6 -27 18 l-22 24 27 -19 c14 -10 24 -21 22
-23z m-177 6 c0 -8 -6 -14 -14 -14 -9 0 -10 4 -2 14 6 7 12 13 14 13 1 0 2 -6
2 -13z m-39 -43 c-3 -27 -4 -26 -9 8 -3 22 -1 34 4 29 5 -5 7 -21 5 -37z m257
26 c-3 -5 -1 -10 6 -10 7 0 10 -3 6 -6 -9 -9 -28 6 -22 17 4 5 8 9 11 9 3 0 2
-4 -1 -10z m-385 -34 c0 -2 -8 -10 -17 -17 -16 -13 -17 -12 -4 4 13 16 21 21
21 13z m265 -6 c-3 -5 -14 -10 -23 -9 -14 0 -13 2 3 9 27 11 27 11 20 0z
m-249 -12 c-3 -22 -17 -39 -27 -32 -6 4 -3 14 7 25 20 22 23 23 20 7z m94 7
c0 -1 -13 -14 -29 -29 -29 -28 -39 -15 -13 16 9 11 42 21 42 13z m30 -19 c0
-2 -8 -10 -17 -17 -16 -13 -17 -12 -4 4 13 16 21 21 21 13z m121 -19 c-6 -8
-8 -16 -5 -19 3 -3 0 -9 -7 -14 -8 -4 -10 -3 -5 4 4 7 2 12 -5 12 -7 0 -4 7 7
15 24 18 30 19 15 2z m99 -8 c0 -5 -7 -9 -15 -9 -15 0 -20 12 -9 23 8 8 24 -1
24 -14z m-323 -51 c-2 -13 -4 -5 -4 17 -1 22 1 32 4 23 2 -10 2 -28 0 -40z
m30 -60 c-2 -18 -4 -4 -4 32 0 36 2 50 4 33 2 -18 2 -48 0 -65z m264 75 c12
-16 12 -17 -1 -7 -8 6 -22 14 -30 17 -13 5 -12 6 1 6 9 1 23 -7 30 -16z m15
-78 c-1 -8 -8 -21 -16 -28 -10 -10 -11 -9 -4 3 5 8 9 18 10 23 3 14 4 17 8 17
2 0 3 -7 2 -15z m-309 -17 c-3 -8 -6 -5 -6 6 -1 11 2 17 5 13 3 -3 4 -12 1
-19z m330 -11 c0 -8 -6 -14 -14 -14 -9 0 -10 4 -2 14 6 7 12 13 14 13 1 0 2
-6 2 -13z m77 -15 c3 -5 -1 -9 -9 -9 -8 0 -12 4 -9 9 3 4 7 8 9 8 2 0 6 -4 9
-8z m-447 -34 c-3 -7 -5 -2 -5 12 0 14 2 19 5 13 2 -7 2 -19 0 -25z m218 -87
c-3 -2 9 -21 27 -40 l33 -36 -37 34 c-21 19 -35 37 -33 40 3 2 -7 18 -22 35
l-28 31 32 -29 c18 -16 31 -32 28 -35z m232 23 c-9 -9 -28 6 -21 18 4 6 10 6
17 -1 6 -6 8 -13 4 -17z m-299 -28 c-1 -3 13 -22 32 -43 l35 -38 -36 33 c-20
18 -36 39 -36 47 0 8 2 13 5 11 2 -2 2 -7 0 -10z m113 -3 c13 -16 12 -17 -3
-4 -10 7 -18 15 -18 17 0 8 8 3 21 -13z m170 -16 c-8 -8 -14 -7 -23 2 -11 10
-9 11 6 5 15 -6 17 -4 11 6 -6 9 -4 11 4 5 9 -5 10 -10 2 -18z m-110 -14 c13
-16 12 -17 -3 -4 -10 7 -18 15 -18 17 0 8 8 3 21 -13z m-306 -14 c-3 -3 7 -17
20 -29 14 -13 25 -31 24 -39 0 -10 -4 -7 -10 7 -5 13 -13 21 -17 18 -5 -3 -21
7 -35 22 l-27 28 24 0 c14 0 23 -3 21 -7z m85 -9 c-12 -8 -12 -10 -1 -10 8 0
12 -3 8 -6 -9 -9 -28 6 -22 17 4 5 12 9 18 9 7 0 6 -4 -3 -10z m90 -56 c0 -5
-7 2 -16 14 -8 12 -19 20 -24 17 -5 -3 -12 0 -16 6 -4 8 -3 9 4 5 7 -4 12 -2
12 5 0 6 9 0 20 -14 11 -14 20 -29 20 -33z m-198 -3 c8 11 9 11 6 1 -4 -16
-22 -18 -24 -2 -2 7 -1 6 3 -1 4 -8 8 -7 15 2z m248 -14 c0 -7 -4 -6 -10 3 -8
12 -10 12 -10 1 0 -8 -3 -12 -6 -8 -9 9 6 28 17 22 5 -4 9 -12 9 -18z m120
-21 c0 -2 -7 -7 -16 -10 -8 -3 -12 -2 -9 4 6 10 25 14 25 6z m-330 -88 l-5
-63 -3 49 c-3 43 2 76 10 76 2 0 1 -28 -2 -62z m260 19 c13 -5 13 -6 -1 -6 -9
-1 -24 9 -35 22 -19 22 -19 22 1 6 11 -9 27 -19 35 -22z m49 -11 c0 -6 -3 -5
-6 3 -5 11 -7 11 -15 0 -8 -11 -9 -11 -5 2 3 9 0 23 -6 30 -7 7 -2 5 11 -5 12
-11 22 -24 21 -30z m-277 -6 c-3 -30 1 -47 14 -63 l19 -22 -22 19 c-16 13 -23
30 -23 56 0 29 6 50 14 50 1 0 0 -18 -2 -40z m45 -2 c-3 -7 -5 -2 -5 12 0 14
2 19 5 13 2 -7 2 -19 0 -25z m114 15 c13 -16 12 -17 -3 -4 -17 13 -22 21 -14
21 2 0 10 -8 17 -17z m4 -43 c11 3 17 -8 7 -14 -5 -3 -24 11 -43 32 -33 36
-33 36 -2 9 17 -16 34 -28 38 -27z m-126 -25 c16 -20 16 -20 -6 -1 -13 11 -22
29 -22 40 1 20 2 20 6 1 3 -11 12 -29 22 -40z m74 22 c19 -7 14 -27 -6 -27 -7
0 -6 4 3 11 12 9 11 10 -7 6 -23 -5 -36 5 -39 31 -2 11 1 11 14 -1 9 -8 25
-17 35 -20z m127 3 c0 -18 -19 -11 -30 11 -11 19 -10 20 9 9 12 -6 21 -15 21
-20z m-138 -55 c0 -5 -5 -10 -11 -11 -8 -2 -7 -1 0 3 8 4 7 8 -2 15 -11 8 -11
9 -1 6 8 -2 14 -8 14 -13z m-100 -20 c0 -5 -5 -10 -11 -11 -8 -2 -7 -1 0 3 8
4 7 8 -2 15 -11 8 -11 9 -1 6 8 -2 14 -8 14 -13z m58 5 c0 -5 -2 -10 -4 -10
-3 0 -8 5 -11 10 -3 6 -1 10 4 10 6 0 11 -4 11 -10z"/>
<path d="M1630 1966 c0 -2 8 -10 18 -17 15 -13 16 -12 3 4 -13 16 -21 21 -21
13z"/>
<path d="M1669 1783 c-13 -16 -12 -17 4 -4 9 7 17 15 17 17 0 8 -8 3 -21 -13z"/>
<path d="M1605 1410 c10 -11 20 -20 23 -20 3 0 -3 9 -13 20 -10 11 -20 20 -23
20 -3 0 3 -9 13 -20z"/>
<path d="M1910 856 c-30 -37 10 -83 58 -65 27 10 32 63 6 73 -26 10 -51 7 -64
-8z"/>
<path d="M2342 858 c-18 -18 -14 -45 9 -61 40 -29 92 11 69 53 -12 23 -59 27
-78 8z"/>
<path d="M480 785 c0 -59 -4 -63 -34 -40 -45 34 -123 8 -150 -49 -30 -64 -13
-156 35 -190 30 -20 98 -21 127 0 20 14 22 14 22 0 0 -12 10 -16 40 -16 l40 0
0 175 0 175 -40 0 -40 0 0 -55z m-20 -115 c39 -39 14 -110 -40 -110 -33 0 -60
31 -60 67 0 28 33 63 60 63 11 0 29 -9 40 -20z"/>
<path d="M2950 665 l0 -175 40 0 40 0 0 175 0 175 -40 0 -40 0 0 -175z"/>
<path d="M57 824 c-4 -4 -7 -81 -7 -171 l0 -163 106 0 105 0 -3 33 c-3 32 -3
32 -65 35 l-63 3 0 34 0 35 55 0 c54 0 55 0 55 29 0 29 -2 30 -52 33 -52 3
-53 4 -56 36 l-3 32 66 0 66 0 -3 33 -3 32 -95 3 c-53 1 -99 0 -103 -4z"/>
<path d="M1578 824 c-5 -4 -8 -81 -8 -172 l0 -164 99 4 c110 3 135 15 179 78
31 46 31 134 -1 180 -36 54 -77 72 -175 77 -48 3 -90 2 -94 -3z m144 -74 c109
-31 82 -190 -31 -190 l-41 0 0 93 c0 52 3 97 7 100 9 9 22 9 65 -3z"/>
<path d="M2480 790 c0 -23 -4 -30 -20 -30 -16 0 -20 -7 -20 -34 0 -25 5 -35
20 -39 18 -5 20 -14 20 -80 0 -70 2 -77 26 -96 17 -13 41 -21 65 -21 38 0 39
1 39 35 0 31 -3 35 -25 35 -24 0 -25 2 -25 65 0 63 1 65 25 65 22 0 25 4 25
35 0 31 -3 35 -25 35 -21 0 -25 5 -25 30 0 28 -2 30 -40 30 -38 0 -40 -2 -40
-30z"/>
<path d="M600 665 c0 -134 24 -175 102 -175 19 0 44 7 56 16 20 14 22 14 22 0
0 -12 11 -16 45 -16 l46 0 -3 133 -3 132 -40 0 -40 0 -3 -85 c-2 -46 -8 -90
-14 -97 -16 -20 -66 -16 -78 6 -5 11 -10 56 -10 100 l0 81 -40 0 -40 0 0 -95z"/>
<path d="M949 737 c-70 -47 -77 -151 -14 -214 30 -30 39 -33 90 -33 51 0 60 3
91 34 46 46 45 66 -5 66 -22 0 -44 -6 -51 -15 -16 -20 -54 -19 -71 1 -7 9 -13
31 -13 49 0 18 6 40 13 49 17 20 60 21 67 1 4 -10 20 -15 50 -15 48 0 53 8 28
46 -37 56 -125 71 -185 31z"/>
<path d="M1234 750 c-81 -32 -95 -174 -23 -234 36 -30 92 -35 127 -10 20 14
22 14 22 0 0 -12 11 -16 45 -16 l46 0 -3 133 -3 132 -38 3 c-26 2 -39 -1 -43
-12 -5 -14 -8 -14 -27 -1 -23 16 -70 19 -103 5z m108 -77 c22 -20 24 -76 2
-97 -36 -37 -94 -8 -94 46 0 58 52 87 92 51z"/>
<path d="M1907 754 c-4 -4 -7 -65 -7 -136 l0 -128 45 0 46 0 -3 133 -3 132
-35 3 c-20 2 -39 0 -43 -4z"/>
<path d="M2084 750 c-81 -32 -95 -174 -23 -234 36 -30 92 -35 127 -10 21 15
22 14 22 -18 0 -19 -5 -39 -12 -46 -17 -17 -64 -15 -82 3 -8 8 -32 15 -54 15
-35 0 -39 -3 -35 -19 3 -10 18 -31 34 -47 37 -35 119 -45 167 -20 60 31 67 52
67 225 l0 156 -38 3 c-26 2 -39 -1 -43 -12 -5 -14 -8 -14 -27 -1 -23 16 -70
19 -103 5z m108 -77 c22 -20 24 -76 2 -97 -36 -37 -94 -8 -94 46 0 58 52 87
92 51z"/>
<path d="M2340 625 l0 -135 40 0 40 0 0 135 0 135 -40 0 -40 0 0 -135z"/>
<path d="M2694 750 c-81 -32 -95 -174 -23 -234 36 -30 92 -35 127 -10 20 14
22 14 22 0 0 -12 11 -16 45 -16 l46 0 -3 133 -3 132 -38 3 c-26 2 -39 -1 -43
-12 -5 -14 -8 -14 -27 -1 -23 16 -70 19 -103 5z m108 -77 c22 -20 24 -76 2
-97 -36 -37 -94 -8 -94 46 0 58 52 87 92 51z"/>
<path d="M590 216 c0 -9 -12 -16 -27 -18 -24 -3 -28 -8 -28 -33 0 -27 3 -30
33 -31 32 -1 32 -1 32 48 0 26 -2 48 -5 48 -3 0 -5 -6 -5 -14z m-5 -51 c0 -30
-39 -27 -43 3 -3 20 0 23 20 20 15 -2 23 -10 23 -23z"/>
<path d="M1275 220 c-3 -6 1 -7 9 -4 18 7 21 14 7 14 -6 0 -13 -4 -16 -10z"/>
<path d="M1993 180 c0 -30 2 -43 4 -28 2 16 2 40 0 56 -2 15 -4 2 -4 -28z"/>
<path d="M420 175 c0 -43 1 -45 28 -44 23 2 24 2 5 6 -27 5 -31 30 -5 36 16 4
16 5 0 6 -26 2 -22 29 5 34 19 4 18 4 -5 6 -27 1 -28 -1 -28 -44z"/>
<path d="M2398 214 c-3 -5 -3 -26 -1 -46 4 -27 10 -38 22 -38 13 0 13 2 2 9
-8 5 -12 19 -9 34 5 26 -6 56 -14 41z"/>
<path d="M660 184 c0 -31 20 -54 45 -52 22 2 25 7 24 38 l-1 35 -7 -30 c-9
-42 -41 -47 -41 -6 0 17 -4 31 -10 31 -5 0 -10 -7 -10 -16z"/>
<path d="M794 186 c-14 -37 22 -74 47 -49 6 6 1 9 -13 9 -17 -1 -23 5 -23 19
0 16 6 20 28 18 15 -1 25 2 22 8 -9 14 -55 11 -61 -5z"/>
<path d="M916 184 c-10 -27 12 -54 44 -54 28 0 30 3 30 35 0 33 -2 35 -34 35
-22 0 -36 -6 -40 -16z m54 -20 c0 -33 -33 -30 -38 4 -3 17 2 22 17 22 16 0 21
-6 21 -26z"/>
<path d="M1054 186 c-14 -37 22 -74 47 -49 6 6 1 9 -13 9 -17 -1 -24 5 -26 23
-3 21 0 23 22 19 14 -3 26 -1 26 3 0 15 -50 10 -56 -5z"/>
<path d="M1183 165 c0 -22 2 -30 4 -17 2 12 2 30 0 40 -3 9 -5 -1 -4 -23z"/>
<path d="M1254 186 c-12 -31 0 -51 31 -51 27 0 30 3 30 30 0 25 -4 30 -28 33
-17 2 -29 -2 -33 -12z m54 -19 c4 -20 -25 -34 -40 -19 -15 15 -1 44 19 40 10
-2 19 -11 21 -21z"/>
<path d="M1381 163 c1 -37 2 -37 8 -8 9 42 41 47 41 6 0 -17 5 -31 10 -31 6 0
10 9 10 19 0 37 -12 51 -41 51 -27 0 -29 -3 -28 -37z"/>
<path d="M1590 184 c0 -9 9 -18 20 -21 11 -3 20 -10 20 -15 0 -6 -9 -8 -20 -5
-11 3 -20 1 -20 -5 0 -14 43 -5 48 10 2 7 -5 16 -17 19 -12 3 -21 10 -21 15 0
6 9 8 20 5 11 -3 18 -1 14 4 -9 15 -44 10 -44 -7z"/>
<path d="M1703 165 c0 -22 2 -30 4 -17 2 12 2 30 0 40 -3 9 -5 -1 -4 -23z"/>
<path d="M1782 163 c1 -37 1 -37 5 -5 3 23 9 32 23 32 14 0 20 -9 23 -32 4
-32 4 -32 5 5 2 35 0 37 -28 37 -28 0 -30 -2 -28 -37z"/>
<path d="M2063 165 c0 -22 2 -30 4 -17 2 12 2 30 0 40 -3 9 -5 -1 -4 -23z"/>
<path d="M2142 162 l1 -37 4 33 c3 24 9 32 24 32 15 0 19 -7 20 -32 l1 -33 7
30 c9 42 41 47 41 6 0 -17 5 -31 10 -31 11 0 12 15 4 47 -5 19 -13 22 -60 22
l-54 0 2 -37z"/>
<path d="M2323 165 c0 -22 2 -30 4 -17 2 12 2 30 0 40 -3 9 -5 -1 -4 -23z"/>
<path d="M2485 180 c-4 -12 -1 -27 5 -35 14 -17 46 -20 55 -5 4 7 -2 9 -18 5
-14 -4 -28 -2 -31 4 -5 7 4 11 24 11 25 0 31 4 28 18 -5 26 -55 29 -63 2z m50
0 c3 -5 -3 -10 -14 -10 -12 0 -21 5 -21 10 0 6 6 10 14 10 8 0 18 -4 21 -10z"/>
<path d="M2610 184 c0 -9 9 -18 20 -21 11 -3 20 -10 20 -15 0 -6 -9 -8 -20 -5
-11 3 -18 1 -14 -4 7 -13 31 -11 40 2 4 7 -4 20 -17 31 l-24 20 23 -5 c12 -3
22 -1 22 4 0 5 -11 9 -25 9 -16 0 -25 -6 -25 -16z"/>
</g>
</svg>
